<?xml version="1.0" standalone="no"?>
<!DOCTYPE svg PUBLIC "-//W3C//DTD SVG 20010904//EN"
 "http://www.w3.org/TR/2001/REC-SVG-20010904/DTD/svg10.dtd">
<svg version="1.0" xmlns="http://www.w3.org/2000/svg"
 width="248.000000pt" height="248.000000pt" viewBox="0 0 248.000000 248.000000"
 preserveAspectRatio="xMidYMid meet">

<g transform="translate(0.000000,248.000000) scale(0.100000,-0.100000)"
fill="#00f3ff" stroke="none">
<path d="M879 2199 c-264 -139 -439 -420 -439 -705 0 -153 38 -289 132 -477
l49 -98 34 27 c19 14 35 28 35 30 0 2 -22 34 -49 71 -95 130 -141 275 -141
448 0 295 159 565 420 714 79 44 49 38 -41 -10z"/>
<path d="M1534 1832 c-12 -2 -61 -43 -110 -93 -49 -49 -94 -89 -102 -89 -22 0
-73 30 -71 43 5 39 -12 48 -40 23 -14 -12 -36 -7 -171 44 -111 41 -160 55
-172 48 -10 -5 -18 -12 -18 -16 0 -4 79 -56 175 -116 97 -60 184 -116 195
-125 19 -15 16 -20 -74 -126 -52 -62 -99 -109 -107 -107 -8 2 -40 10 -73 19
-80 20 -92 5 -29 -38 65 -44 97 -75 134 -132 45 -69 60 -49 32 43 l-20 70 108
90 c60 50 113 90 118 90 5 0 62 -84 127 -187 64 -104 118 -190 121 -192 2 -3
11 2 19 11 14 14 11 29 -42 168 -48 127 -56 155 -46 171 16 24 15 49 0 50 -7
1 -20 2 -28 3 -8 0 -21 18 -28 39 l-15 37 90 88 c53 51 93 98 97 115 12 49
-17 78 -70 69z"/>
<path d="M2026 1378 c-2 -7 -11 -44 -20 -82 -50 -211 -202 -394 -410 -496
-108 -53 -180 -71 -306 -77 -249 -12 -355 56 -368 236 -4 56 0 78 21 131 15
35 25 66 23 68 -7 6 -109 -123 -145 -183 -75 -124 -90 -222 -44 -290 95 -141
457 -545 488 -545 7 0 72 61 144 136 368 381 623 788 675 1077 7 36 6 37 -24
37 -17 0 -32 -6 -34 -12z"/>
</g>
</svg>
